<svg xmlns="http://www.w3.org/2000/svg" width="420" height="420" viewBox="0 0 420 420" fill="none">
  <circle cx="210" cy="210" r="168" stroke="#c9a66b" stroke-width="1" opacity="0.18"/>
  <circle cx="210" cy="210" r="132" stroke="#c9a66b" stroke-width="0.8" opacity="0.12" stroke-dasharray="4 8"/>
  <g stroke="#c9a66b" stroke-width="0.9" opacity="0.22">
    <path d="M210 42v48M210 330v48M42 210h48M330 210h48"/>
    <path d="M91 91l34 34M295 295l34 34M329 91l-34 34M91 329l34-34"/>
  </g>
  <g fill="#7a8450" fill-opacity="0.1" stroke="#7a8450" stroke-width="0.7">
    <path d="M210 78c-10 18-2 32 14 36-18 4-28 18-22 34 10-14 26-16 38-8-8 14-4 30 10 38-16-6-32 2-38 18 6-16 20-26 36-22-12 10-14 26-4 38 4-18 18-28 34-22-14 10-16 26-6 38"/>
    <path d="M210 342c10-18 2-32-14-36 18-4 28-18 22-34-10 14-26 16-38 8 8-14 4-30-10-38 16 6 32-2 38-18-6 16-20 26-36 22 12-10 14-26 4-38-4 18-18 28-34 22 14-10 16-26 6-38"/>
  </g>
  <circle cx="210" cy="210" r="10" fill="#f4e9d8" fill-opacity="0.2" stroke="#c9a66b" stroke-width="0.8" opacity="0.35"/>
</svg>
