<svg xmlns="http://www.w3.org/2000/svg" viewBox="0 0 1200 630" role="img" aria-label="Wisata Binangun">
  <defs>
    <linearGradient id="bg" x1="0%" y1="0%" x2="100%" y2="100%">
      <stop offset="0%" stop-color="#4a3222"/>
      <stop offset="55%" stop-color="#8b5e3c"/>
      <stop offset="100%" stop-color="#7a8450"/>
    </linearGradient>
    <linearGradient id="panel" x1="0%" y1="0%" x2="0%" y2="100%">
      <stop offset="0%" stop-color="#fffbf5" stop-opacity="0.14"/>
      <stop offset="100%" stop-color="#fffbf5" stop-opacity="0.04"/>
    </linearGradient>
    <filter id="shadow" x="-20%" y="-20%" width="140%" height="140%">
      <feDropShadow dx="0" dy="8" stdDeviation="16" flood-color="#000" flood-opacity="0.25"/>
    </filter>
  </defs>

  <rect width="1200" height="630" fill="url(#bg)"/>
  <rect width="1200" height="630" fill="url(#panel)"/>

  <!-- Ornamen sudut -->
  <g fill="none" stroke="#c9a66b" stroke-width="3" opacity="0.85">
    <path d="M48 48 H160 V72"/>
    <path d="M1152 48 H1040 V72"/>
    <path d="M48 582 H160 V558"/>
    <path d="M1152 582 H1040 V558"/>
  </g>

  <!-- Icon mountain-sun  Font Awesome Free 6.5.2 (CC BY 4.0) -->
  <g transform="translate(500 120) scale(0.19)" filter="url(#shadow)" fill="#f4e9d8">
    <path d="M560 160A80 80 0 1 0 560 0a80 80 0 1 0 0 160zM55.9 512H381.1h75H578.9c33.8 0 61.1-27.4 61.1-61.1c0-11.2-3.1-22.2-8.9-31.8l-132-216.3C495 196.1 487.8 192 480 192s-15 4.1-19.1 10.7l-48.2 79L286.8 81c-6.6-10.6-18.3-17-30.8-17s-24.1 6.4-30.8 17L8.6 426.4C3 435.3 0 445.6 0 456.1C0 487 25 512 55.9 512z"/>
  </g>

  <text x="600" y="390" text-anchor="middle" fill="#fffbf5"
    font-family="Georgia, 'Times New Roman', serif" font-size="72" font-weight="700"
    letter-spacing="2">Wisata Binangun</text>

  <line x1="420" y1="420" x2="780" y2="420" stroke="#c9a66b" stroke-width="2" opacity="0.9"/>

  <text x="600" y="475" text-anchor="middle" fill="#f4e9d8"
    font-family="Georgia, 'Times New Roman', serif" font-size="30" font-style="italic"
    opacity="0.95">Pesona Alam &amp; Budaya yang Tak Lekang Waktu</text>

  <text x="600" y="545" text-anchor="middle" fill="#c9a66b"
    font-family="Georgia, 'Times New Roman', serif" font-size="22" letter-spacing="4"
    opacity="0.9">wisatabinangun.id</text>
</svg>
